<svg width="267" height="400" viewBox="0 0 267 400" fill="none" xmlns="http://www.w3.org/2000/svg">
<path d="M0 66.6667C0 29.8477 29.8477 0 66.6667 0V0C103.486 0 133.333 29.8477 133.333 66.6667V266.667H100C44.7715 266.667 0 221.895 0 166.667V66.6667Z" fill="#66E2DC"/>
<path d="M133.333 266.667H200C236.819 266.667 266.667 296.514 266.667 333.333V333.333C266.667 370.152 236.819 400 200 400V400C163.181 400 133.333 370.152 133.333 333.333V266.667Z" fill="#191826"/>
<rect x="200" y="66.6667" width="66.6667" height="66.6667" rx="33.3333" fill="#FFB964"/>
<rect x="200" width="66.6667" height="66.6667" rx="33.3333" fill="#FA7453"/>
<rect y="266.667" width="133.333" height="133.333" rx="66.6667" fill="#FA7453"/>
<rect x="133.333" width="66.6667" height="133.333" rx="33.3333" fill="#191826"/>
<rect x="134.333" y="134.333" width="131.333" height="131.333" rx="65.6667" stroke="#191826" stroke-width="2"/>
<rect x="134.333" y="167.667" width="64.6667" height="64.6667" rx="32.3333" stroke="#191826" stroke-width="2"/>
</svg>
